<svg width="512" height="512" viewBox="0 0 512 512" fill="none" xmlns="http://www.w3.org/2000/svg">
  <defs>
    <linearGradient id="bg" x1="96" y1="76" x2="406" y2="430" gradientUnits="userSpaceOnUse">
      <stop stop-color="#F6FBFF"/>
      <stop offset="1" stop-color="#E8F3FF"/>
    </linearGradient>
    <linearGradient id="tealArc" x1="162" y1="126" x2="332" y2="286" gradientUnits="userSpaceOnUse">
      <stop stop-color="#6ABFC0"/>
      <stop offset="1" stop-color="#2D8B8B"/>
    </linearGradient>
    <linearGradient id="orangeArc" x1="222" y1="178" x2="378" y2="322" gradientUnits="userSpaceOnUse">
      <stop stop-color="#F9BB7E"/>
      <stop offset="1" stop-color="#F58220"/>
    </linearGradient>
    <linearGradient id="greenDot" x1="168" y1="318" x2="230" y2="382" gradientUnits="userSpaceOnUse">
      <stop stop-color="#B6DD73"/>
      <stop offset="1" stop-color="#8DC63F"/>
    </linearGradient>
    <filter id="shadow" x="54" y="48" width="404" height="416" filterUnits="userSpaceOnUse" color-interpolation-filters="sRGB">
      <feFlood flood-opacity="0" result="BackgroundImageFix"/>
      <feColorMatrix in="SourceAlpha" type="matrix" values="0 0 0 0 0 0 0 0 0 0 0 0 0 0 0 0 0 0 127 0" result="hardAlpha"/>
      <feOffset dy="18"/>
      <feGaussianBlur stdDeviation="18"/>
      <feColorMatrix type="matrix" values="0 0 0 0 0.0666667 0 0 0 0 0.12549 0 0 0 0 0.207843 0 0 0 0.16 0"/>
      <feBlend mode="normal" in2="BackgroundImageFix" result="effect1_dropShadow_1_1"/>
      <feBlend mode="normal" in="SourceGraphic" in2="effect1_dropShadow_1_1" result="shape"/>
    </filter>
  </defs>

  <g filter="url(#shadow)">
    <rect x="90" y="84" width="332" height="332" rx="108" fill="url(#bg)"/>
    <rect x="90" y="84" width="332" height="332" rx="108" stroke="rgba(27,43,72,0.08)" stroke-width="2"/>

    <path d="M178 336C201.333 324.667 226.667 319 254 319C281.333 319 306.667 324.667 330 336V355C306.667 343.667 281.333 338 254 338C226.667 338 201.333 343.667 178 355V336Z" fill="#1B2B48"/>
    <path d="M185 306L246 332.5V235C223.333 224.333 199.667 219 175 219V299C178.333 300.333 181.667 302.667 185 306Z" fill="#203455"/>
    <path d="M323 306L262 332.5V235C284.667 224.333 308.333 219 333 219V299C329.667 300.333 326.333 302.667 323 306Z" fill="#203455"/>
    <path d="M254 150C240.115 150 228.857 161.258 228.857 175.143C228.857 190.306 239.094 197.498 254 209.714C268.906 197.498 279.143 190.306 279.143 175.143C279.143 161.258 267.885 150 254 150Z" fill="#1B2B48"/>

    <path d="M154 248C154 196.085 196.085 154 248 154" stroke="url(#tealArc)" stroke-width="28" stroke-linecap="round"/>
    <path d="M188 282C188 229.533 230.533 187 283 187" stroke="url(#orangeArc)" stroke-width="24" stroke-linecap="round"/>
    <path d="M201 141C225.684 129.219 255.817 128.047 283.346 139.213" stroke="#A7DCE0" stroke-width="12" stroke-linecap="round"/>

    <circle cx="333" cy="155" r="16" fill="#F7A24D"/>
    <circle cx="195" cy="351" r="24" fill="url(#greenDot)"/>
    <circle cx="330" cy="257" r="12" fill="#2D8B8B"/>
    <circle cx="154" cy="279" r="8" fill="#9ACEEA"/>
  </g>
</svg>
